<svg width="89" height="38" viewBox="0 0 89 38" fill="none" xmlns="http://www.w3.org/2000/svg">
<path d="M5.60175 20.1406L15.133 23.3594V28.1562L1.30487 22.5312V18.9688L5.60175 20.1406ZM15.133 17.5312L5.58612 20.8125L1.30487 21.9375V18.375L15.133 12.75V17.5312ZM37.2736 17.8438V27.1875C36.8882 27.6146 36.2945 28.0729 35.4924 28.5625C34.7007 29.0417 33.7007 29.4531 32.4924 29.7969C31.284 30.1406 29.8622 30.3125 28.2267 30.3125C26.7163 30.3125 25.3465 30.0729 24.1174 29.5938C22.8882 29.1042 21.8309 28.3906 20.9455 27.4531C20.0705 26.5052 19.3934 25.349 18.9142 23.9844C18.4455 22.6094 18.2111 21.0365 18.2111 19.2656V18C18.2111 16.2292 18.4507 14.6562 18.9299 13.2812C19.409 11.9062 20.0809 10.75 20.9455 9.8125C21.8205 8.86458 22.8465 8.14583 24.0236 7.65625C25.2111 7.16667 26.5132 6.92188 27.9299 6.92188C30.0236 6.92188 31.7267 7.25521 33.0392 7.92188C34.3517 8.57812 35.3465 9.48958 36.0236 10.6562C36.7007 11.8125 37.1122 13.151 37.258 14.6719H31.9924C31.8882 13.9219 31.6903 13.2865 31.3986 12.7656C31.1174 12.2344 30.7111 11.8333 30.1799 11.5625C29.6486 11.2812 28.9611 11.1406 28.1174 11.1406C27.4611 11.1406 26.8622 11.2812 26.3205 11.5625C25.7892 11.8438 25.3361 12.2708 24.9611 12.8438C24.5861 13.4062 24.2945 14.1146 24.0861 14.9688C23.8882 15.8229 23.7892 16.8229 23.7892 17.9688V19.2656C23.7892 20.401 23.883 21.3958 24.0705 22.25C24.2684 23.1042 24.5601 23.8177 24.9455 24.3906C25.3413 24.9531 25.8413 25.3802 26.4455 25.6719C27.0601 25.9531 27.784 26.0938 28.6174 26.0938C29.2007 26.0938 29.7007 26.0469 30.1174 25.9531C30.534 25.849 30.8778 25.724 31.1486 25.5781C31.4299 25.4219 31.6434 25.276 31.7892 25.1406V21.6094H27.9767V17.8438H37.2736ZM51.4924 7.25V30H46.008V7.25H51.4924ZM58.3361 7.25V11.4844H39.3205V7.25H58.3361ZM70.008 7.25L62.2267 31.9531H58.4767L66.258 7.25H70.008ZM81.4142 20.7656L71.9142 17.5469V12.7656L85.6642 18.3906V21.9688L81.4142 20.7656ZM71.9142 23.3906L81.4142 20.0938L85.6642 18.9844V22.5469L71.9142 28.1719V23.3906Z" fill="#2B2D42"/>
</svg>
